<svg xmlns="http://www.w3.org/2000/svg" viewBox="0 0 151 45">
    <path fill="#188cff" stroke="#188cff" stroke-linecap="round" stroke-linejoin="round" stroke-width=".626" d="M20.777 3.955c-5.397 0-9.364 1.11-11.995 2.807-2.632 1.697-3.93 4.008-3.899 6.33.031 2.323 1.38 4.62 3.866 6.317 2.487 1.698 6.114 2.807 10.78 2.807H90.83v-.624h-71.3c-4.566 0-8.071-1.092-10.428-2.7-2.357-1.61-3.561-3.723-3.589-5.809-.027-2.086 1.113-4.185 3.607-5.794 2.495-1.61 6.347-2.705 11.658-2.705h8.282v-.63z"/>
    <path fill="#005695" stroke="#005695" stroke-linecap="round" stroke-linejoin="round" stroke-width=".631" d="M30.955 3.71v16.72l.634.013V3.71zm0 19.677v16.277h.634V23.387z"/>
    <path fill="#005695" stroke="#005695" stroke-linecap="round" stroke-linejoin="round" stroke-width=".768" d="M40.911 23.576c-4.408-.017-7.829 4.171-7.829 8.203 0 1.989.644 3.855 1.887 5.23 1.243 1.375 3.087 2.245 5.392 2.248 4.493.004 8.578-1.249 8.578-1.249l-.222-.73s-4.007 1.216-8.356 1.21c-2.116-.002-3.723-.775-4.823-1.992-1.1-1.217-1.688-2.895-1.688-4.717 0-.178.002-.34.017-.519l15.183.015v-.384c0-2.384-.958-4.238-2.46-5.466-1.502-1.228-3.527-1.84-5.679-1.85zm-.005.767c2.008.01 3.862.582 5.198 1.674 1.246 1.019 1.995 2.529 2.1 4.49H34c.658-3.142 3.486-6.177 6.906-6.164z"/>
    <path fill="#005695" stroke="#005695" stroke-linecap="round" stroke-linejoin="round" stroke-width=".68" d="m49.401 24.672-.61.3 7.205 14.844 7.13-14.687-.61-.3-6.52 13.429z"/>
    <path fill="#188cff" stroke="#188cff" stroke-linecap="round" stroke-linejoin="round" stroke-width=".626" d="M90.534 14.063v15.233l13.189-7.616-.467-.273zm.625 1.083 11.315 6.534-11.315 6.534z"/>
    <path fill="#005695" stroke="#005695" stroke-linecap="round" stroke-linejoin="round" stroke-width=".782" d="M92.333 3.566v11.038l.782.431V4.348h9.382c7.568 0 14.266 7.302 14.266 17.147 0 9.845-6.72 17.775-14.266 17.775h-9.382V28.385l-.782.49v11.177h10.164c8.09 0 15.052-8.356 15.052-18.557 0-10.201-6.983-17.929-15.052-17.929z"/>
    <path fill="#005695" stroke="#005695" stroke-linecap="round" stroke-linejoin="round" stroke-width=".68" d="m133.124 25.106-.61.296 7.204 14.849 7.13-14.692-.614-.296-6.516 13.43z"/>
    <path fill="#005695" d="M77.487 3.208V18.87h.629V3.208z"/>
    <path fill="#005695" d="M75.924 9.229v.485h3.755V9.23zm4.102-6.021V18.87h.629V3.208z"/>
    <path fill="#005695" d="M81.908 10.727c-.3 0-.557.142-.772.314a3.249 3.249 0 0 0-.555.592c-.314.419-.523.833-.523.833l.564.277s.184-.366.458-.73a2.79 2.79 0 0 1 .449-.486c.151-.121.287-.176.379-.176.091 0 .18.026.323.218.144.191.308.55.449 1.114.282 1.127.481 3.068.481 6.187h.624c0-3.145-.194-5.117-.5-6.34-.152-.61-.33-1.038-.554-1.336-.224-.298-.523-.467-.823-.467zm4.069.157c-.39 0-.736.142-.976.384-.24.242-.374.556-.462.897-.176.683-.171 1.51-.171 2.322 0 .81 0 1.835.166 2.7.084.433.203.831.426 1.152.223.32.589.56 1.017.56h1.253v-.718h-1.253c-.198 0-.3-.063-.43-.25-.13-.186-.241-.5-.314-.878-.126-.652-.127-1.474-.13-2.21h2.483v-.356s.003-.838-.161-1.693c-.083-.427-.201-.862-.412-1.225-.21-.364-.569-.685-1.036-.685zm0 .712c.16 0 .275.084.416.329.142.244.26.62.333 1.003.115.592.11.958.116 1.203h-1.739c.005-.667.01-1.34.125-1.785.069-.268.165-.46.277-.574.113-.113.236-.176.472-.176z"/>
    <path fill="#005695" stroke="#005695" stroke-linecap="round" stroke-linejoin="round" stroke-width=".626" d="M22.042 23.237c1.967.546 2.246.632 3.665 1.6 2.357 1.61 3.566 3.723 3.594 5.81.027 2.086-1.12 4.185-3.613 5.794-2.495 1.61-6.342 2.705-11.653 2.705h-9.17v.63h9.17c5.397 0 9.365-1.11 11.996-2.807 2.632-1.698 3.923-4.01 3.893-6.332-.03-2.323-1.375-4.62-3.861-6.317-.971-.662-1.102-.712-1.975-1.07z"/>
    <path fill="#005695" stroke="#005695" stroke-linecap="round" stroke-linejoin="round" stroke-width=".768" d="M70.015 23.914c-4.408-.017-7.829 4.172-7.829 8.203 0 1.989.644 3.855 1.887 5.23 1.243 1.376 3.087 2.245 5.392 2.248 4.492.005 8.578-1.249 8.578-1.249l-.222-.73s-4.007 1.216-8.356 1.211c-2.116-.002-3.724-.776-4.823-1.993-1.1-1.217-1.688-2.894-1.688-4.717 0-.178.002-.34.017-.518l15.183.014v-.384c0-2.384-.958-4.238-2.46-5.466-1.502-1.228-3.527-1.84-5.679-1.85zm-.005.767c2.008.01 3.862.582 5.198 1.674 1.245 1.019 1.995 2.529 2.1 4.49H63.104c.657-3.141 3.485-6.177 6.905-6.164zm54.818-.376C120.42 24.29 117 28.477 117 32.51c0 1.988.644 3.855 1.887 5.23 1.243 1.375 3.087 2.244 5.392 2.247 4.493.005 8.578-1.248 8.578-1.248l-.222-.73s-4.007 1.215-8.356 1.21c-2.116-.002-3.723-.776-4.823-1.992-1.1-1.217-1.688-2.895-1.688-4.717 0-.178.003-.34.017-.519l15.183.014v-.383c0-2.384-.958-4.238-2.46-5.466-1.502-1.229-3.527-1.84-5.679-1.85zm-.005.768c2.008.01 3.862.582 5.198 1.674 1.245 1.019 1.995 2.528 2.1 4.49h-14.204c.658-3.142 3.486-6.178 6.906-6.164z"/>
</svg>
